<svg width="30" height="26" viewBox="0 0 30 26" fill="none" xmlns="http://www.w3.org/2000/svg">
<path d="M24.7785 22.6036C24.9166 23.5978 24.5404 24.5473 23.8589 25.1424C23.7324 25.2542 23.5954 25.3523 23.4492 25.4366C23.3169 25.5119 23.1788 25.5768 23.0326 25.6281C22.7011 25.7455 22.3558 25.7888 22.0163 25.7672C22.0071 25.7672 21.9978 25.7672 21.9887 25.7649C21.305 25.7159 20.6466 25.4058 20.1806 24.9099C19.4244 24.1062 19.4463 23.1075 19.4554 22.8989C19.4554 22.7985 19.4601 22.7006 19.4715 22.6036H11.2538C11.2654 22.7006 11.2699 22.7985 11.2699 22.8989C11.2792 23.1075 11.301 24.1062 10.5449 24.9099C10.0787 25.4058 9.42039 25.7159 8.73673 25.7649C8.72749 25.7672 8.71826 25.7672 8.70902 25.7672C8.36958 25.7888 8.0243 25.7455 7.69282 25.6281C7.54662 25.5768 7.4085 25.5119 7.27614 25.4366C7.12996 25.3523 6.99301 25.2542 6.8664 25.1436C6.86526 25.1436 6.86526 25.1424 6.86526 25.1424C6.18504 24.5462 5.80868 23.5978 5.9468 22.6036H2.98657C3.00613 22.5306 3.02685 22.4566 3.04641 22.3836C3.41472 21.0281 3.78302 19.6715 4.15132 18.3159L4.39302 18.3045L7.2209 18.1792C7.34865 18.1735 7.44648 18.0674 7.44073 17.942C7.43496 17.8154 7.33023 17.7174 7.20018 17.7243L4.51847 17.8428L4.27793 17.8542C4.41144 17.3595 4.5461 16.8658 4.67961 16.3722L4.91325 16.3916L7.18407 16.5796H7.20363C7.32218 16.5796 7.42346 16.4896 7.43267 16.371C7.44303 16.2457 7.3498 16.135 7.2232 16.1247L5.03525 15.9435L4.80161 15.9241C4.93741 15.4237 5.07323 14.9232 5.20904 14.4238L5.42541 14.507L7.57999 15.3313C7.60646 15.3416 7.63523 15.3473 7.66285 15.3473C7.75491 15.3473 7.84237 15.2914 7.87698 15.2014C7.92293 15.0839 7.86423 14.9517 7.74567 14.9061L5.54627 14.0635L5.32989 13.9815C6.52343 9.58778 7.71808 5.19409 8.91165 0.801514C9.77374 3.42816 10.6345 6.05481 11.4955 8.68032C12.1032 8.37479 13.52 7.74891 15.3546 7.77741H15.3707C17.2053 7.74891 18.6222 8.37479 19.2298 8.68032C20.0908 6.05481 20.9517 3.42816 21.8138 0.801514C23.0072 5.19409 24.202 9.58778 25.3954 13.9815L25.1791 14.0635L22.9796 14.9061C22.8611 14.9517 22.8012 15.0839 22.8473 15.2014C22.8829 15.2914 22.9704 15.3473 23.0625 15.3473C23.0901 15.3473 23.1177 15.3416 23.1453 15.3313L25.2999 14.507L25.5163 14.4238C25.6521 14.9232 25.788 15.4237 25.9237 15.9241L25.6901 15.9435L23.5022 16.1247C23.3756 16.135 23.2812 16.2457 23.2915 16.371C23.3019 16.4896 23.4031 16.5796 23.5205 16.5796H23.5402L25.8122 16.3916L26.0458 16.3722C26.1793 16.8658 26.3139 17.3595 26.4474 17.8542L26.2069 17.8428L23.524 17.7243C23.394 17.7196 23.2893 17.8154 23.2835 17.942C23.2777 18.0674 23.3767 18.1735 23.5034 18.1792L26.3324 18.3045L26.574 18.3159C26.9424 19.6715 27.3107 21.0281 27.679 22.3836C27.6985 22.4566 27.7192 22.5306 27.7387 22.6036H24.7785Z" fill="#F4E041"/>
<path d="M28.0382 22.8316L27.9783 22.6127L27.9161 22.3835L26.8135 18.3261L26.5742 18.3159L26.3325 18.3045L27.4385 22.3755H24.514L24.5496 22.6344C24.6589 23.4175 24.4242 24.1768 23.9534 24.724C23.8636 24.8289 23.7647 24.9258 23.6588 25.0124C23.6266 25.0398 23.5932 25.066 23.5598 25.09C23.4907 25.1424 23.4194 25.1892 23.3446 25.2313C23.2215 25.3032 23.0914 25.3647 22.9544 25.4126C22.7265 25.4935 22.4894 25.5368 22.2512 25.5437C22.1729 25.546 22.0947 25.5437 22.0164 25.5391C21.9404 25.5346 21.8644 25.5254 21.7885 25.5129C21.2499 25.4274 20.7354 25.1652 20.3487 24.7537C19.7065 24.0707 19.6708 23.2363 19.6858 22.8988C19.6858 22.7997 19.6903 22.7118 19.6996 22.6297L19.7295 22.3755H10.9949L11.0249 22.6297C11.0341 22.7118 11.0398 22.7997 11.0398 22.9079C11.0536 23.2363 11.018 24.0707 10.3757 24.7537C9.98902 25.1652 9.47455 25.4274 8.93704 25.5129C8.86116 25.5254 8.78516 25.5346 8.70915 25.5391C8.63093 25.5437 8.55271 25.546 8.47437 25.5437C8.23502 25.5368 7.9979 25.4935 7.77001 25.4126C7.6342 25.3647 7.50414 25.3043 7.38214 25.2325H7.38099C7.30618 25.1902 7.23367 25.1424 7.16462 25.09C7.13123 25.066 7.09785 25.0398 7.06563 25.0124C6.95974 24.9258 6.86076 24.8289 6.77099 24.724C6.30026 24.1768 6.06546 23.4175 6.1748 22.6344L6.21048 22.3755H3.28708L4.39313 18.3045L4.15144 18.3159L3.91089 18.3261L2.80828 22.3835L2.74613 22.6127L2.68628 22.8316H5.69255C5.61659 24.1711 6.39463 25.4115 7.61463 25.8424C8.677 26.2186 9.92226 25.9063 10.713 25.0649C11.4737 24.2554 11.5163 23.2728 11.5003 22.8988C11.5003 22.876 11.4991 22.8532 11.4991 22.8316H19.2254V22.8886C19.2081 23.2728 19.2507 24.2554 20.0115 25.0649C20.58 25.6691 21.3811 25.9997 22.1809 25.9997C22.4952 25.9997 22.8094 25.9484 23.1098 25.8424C24.3298 25.4115 25.1078 24.1711 25.0319 22.8316H28.0382ZM4.67972 16.372L4.44608 16.3527L4.03635 17.8644L4.27804 17.8541L4.51859 17.8428L4.91336 16.3914L4.67972 16.372ZM21.8346 0L21.594 0.730765C20.8758 2.92191 20.1565 5.11308 19.4383 7.30309L19.0919 8.3599C18.216 7.95177 16.9177 7.52197 15.3709 7.54933H15.3582C13.8068 7.52426 12.5084 7.95177 11.6326 8.3599L11.2862 7.30309C10.5679 5.11308 9.84976 2.92191 9.13044 0.730765L8.88992 0L5.11363 13.8982L5.33001 13.9815L5.54638 14.0635L8.93248 1.60176C9.57124 3.55007 10.21 5.49727 10.8476 7.44445L11.3599 9.00402L11.5992 8.88317C12.4233 8.4682 13.7481 7.97571 15.3547 8.00535H15.3743C16.9856 7.97799 18.3011 8.4682 19.1252 8.88317L19.3657 9.00402L19.8768 7.44445C20.5144 5.49727 21.1532 3.55007 21.7931 1.60176L25.1791 14.0635L25.3956 13.9815L25.6108 13.8982L21.8346 0ZM4.99277 14.3406L4.56808 15.9046L4.80172 15.924L5.03536 15.9434L5.42554 14.507L5.20916 14.4238L4.99277 14.3406ZM25.7316 14.3416L25.5165 14.4238L25.3001 14.507L25.6902 15.9434L25.9238 15.924L26.1564 15.9058L25.7316 14.3416ZM26.2784 16.3527L26.0459 16.372L25.8122 16.3914L26.207 17.8428L26.4476 17.8541L26.6881 17.8644L26.2784 16.3527Z" fill="black" fill-opacity="0.87"/>
<path d="M17.1869 14.9493C16.9164 14.9493 16.6978 14.7326 16.6978 14.4647V11.528C16.6978 11.2601 16.9164 11.0435 17.1869 11.0435C17.4573 11.0435 17.676 11.2601 17.676 11.528V14.4647C17.676 14.7315 17.4573 14.9493 17.1869 14.9493Z" fill="black" fill-opacity="0.87"/>
<path d="M13.8254 14.4365C13.5572 14.4649 13.3155 14.2722 13.2868 14.0055L13.0485 11.7893C13.0197 11.5236 13.2143 11.2842 13.4836 11.2557C13.7518 11.2272 13.9935 11.4199 14.0222 11.6867L14.2604 13.9029C14.2893 14.1696 14.0947 14.4079 13.8254 14.4365Z" fill="black" fill-opacity="0.87"/>
<path d="M7.87501 15.2013C7.84052 15.2914 7.75306 15.3472 7.66097 15.3472C7.63334 15.3472 7.60456 15.3416 7.57809 15.3313L5.42353 14.507L5.20715 14.4238L4.99077 14.3406L1.86019 13.1424C1.7405 13.0968 1.6818 12.9646 1.72783 12.8471C1.77388 12.7297 1.90738 12.6716 2.02593 12.7172L5.11162 13.8982L5.328 13.9814L5.54437 14.0635L7.74382 14.9061C7.86238 14.9517 7.92108 15.0839 7.87501 15.2013Z" fill="black" fill-opacity="0.87"/>
<path d="M7.43055 16.3708C7.42133 16.4894 7.32005 16.5795 7.2015 16.5795H7.18194L4.91112 16.3914L4.67748 16.372L4.44384 16.3526L1.07273 16.0733C0.946121 16.063 0.851739 15.9525 0.863256 15.827C0.873604 15.7017 0.982953 15.6081 1.11185 15.6196L4.56584 15.9046L4.79948 15.9239L5.03312 15.9433L7.22108 16.1246C7.34767 16.1348 7.44091 16.2455 7.43055 16.3708Z" fill="black" fill-opacity="0.87"/>
<path d="M7.43888 17.9422C7.44463 18.0677 7.3468 18.1736 7.21905 18.1793L4.39117 18.3047L4.14948 18.3162L3.90893 18.3264L1.09486 18.4519H1.0845C0.962499 18.4519 0.860073 18.356 0.855466 18.2341C0.849713 18.1075 0.947544 18.0015 1.07414 17.9958L4.03437 17.8647L4.27607 17.8545L4.51662 17.8431L7.19833 17.7245C7.32838 17.7176 7.43312 17.8157 7.43888 17.9422Z" fill="black" fill-opacity="0.87"/>
<path d="M28.8614 13.1424L25.7297 14.3417L25.5144 14.4238L25.2981 14.507L23.1435 15.3313C23.1159 15.3416 23.0882 15.3472 23.0606 15.3472C22.9686 15.3472 22.881 15.2914 22.8453 15.2013C22.7994 15.0839 22.8591 14.9517 22.9777 14.9061L25.1772 14.0635L25.3936 13.9814L25.6088 13.8982L28.6956 12.7172C28.813 12.6716 28.9477 12.7297 28.9937 12.8471C29.0386 12.9646 28.9799 13.0968 28.8614 13.1424Z" fill="black" fill-opacity="0.87"/>
<path d="M29.8567 15.8273C29.867 15.9527 29.7726 16.0633 29.646 16.0735L26.2749 16.3529L26.0423 16.3723L25.8087 16.3916L23.5367 16.5797H23.5172C23.3998 16.5797 23.2985 16.4897 23.2881 16.3711C23.2777 16.2457 23.3722 16.1351 23.4987 16.1248L25.6867 15.9436L25.9204 15.9242L26.1528 15.906L29.608 15.6198C29.7346 15.6072 29.8463 15.7018 29.8567 15.8273Z" fill="black" fill-opacity="0.87"/>
<path d="M29.8649 18.2338C29.8591 18.3558 29.7578 18.4516 29.6347 18.4516H29.6243L26.8102 18.3262L26.5709 18.3159L26.3292 18.3045L23.5002 18.1792C23.3736 18.1734 23.2745 18.0674 23.2803 17.942C23.2861 17.8154 23.3908 17.7196 23.5209 17.7243L26.2038 17.8428L26.4443 17.8542L26.6848 17.8645L29.6451 17.9955C29.7728 18.0012 29.8706 18.1073 29.8649 18.2338Z" fill="black" fill-opacity="0.87"/>
<path d="M21.9209 23.5796C22.0087 23.8304 22.0849 24.136 22.1093 24.486C22.1381 24.8976 22.0861 25.2555 22.0145 25.5393L21.9209 23.5796Z" />
<path d="M22.0155 25.7672C21.9971 25.7672 21.9786 25.7649 21.9603 25.7604C21.8372 25.7306 21.7612 25.6064 21.7923 25.4845C21.8728 25.1595 21.9028 24.8289 21.8797 24.5017C21.8601 24.2178 21.8003 23.9328 21.7036 23.6546C21.6621 23.5361 21.7255 23.4061 21.8463 23.3651C21.9672 23.324 22.0972 23.3867 22.1386 23.5065C22.2491 23.8222 22.3159 24.1471 22.3389 24.4709C22.3654 24.846 22.3308 25.2233 22.2388 25.595C22.2123 25.6976 22.1179 25.7672 22.0155 25.7672Z" fill="black" fill-opacity="0.87"/>
<path d="M23.4216 23.4893C23.5627 23.7139 23.6852 23.9874 23.7234 24.3009C23.7697 24.6692 23.6864 24.9896 23.5719 25.2449L23.4216 23.4893Z" />
<path d="M23.5715 25.4718C23.5404 25.4718 23.5093 25.465 23.4782 25.4524C23.362 25.4011 23.309 25.2666 23.3608 25.1515C23.4829 24.8779 23.5266 24.6008 23.4932 24.3272C23.4632 24.0878 23.3736 23.8461 23.2251 23.6078C23.1583 23.5007 23.1916 23.3604 23.2999 23.2943C23.4081 23.2282 23.5497 23.2613 23.6164 23.3684C23.8006 23.6625 23.9121 23.967 23.9501 24.2725C23.9939 24.6282 23.9375 24.9862 23.7821 25.3361C23.7441 25.4217 23.6601 25.4718 23.5715 25.4718Z" fill="black" fill-opacity="0.87"/>
<path d="M8.80303 23.5796C8.7152 23.8304 8.63888 24.136 8.61457 24.486C8.58568 24.8976 8.6377 25.2555 8.70933 25.5393L8.80303 23.5796Z" />
<path d="M8.70705 25.7673C8.60357 25.7673 8.51026 25.6976 8.48384 25.594C8.3917 25.2235 8.35721 24.845 8.38363 24.4698C8.4055 24.145 8.47343 23.8211 8.58392 23.5054C8.62543 23.3868 8.75662 23.3229 8.87624 23.364C8.99597 23.405 9.06039 23.535 9.019 23.6536C8.92231 23.9317 8.86244 24.2156 8.84291 24.5006C8.81988 24.8278 8.84981 25.1585 8.93037 25.4834C8.96031 25.6054 8.88547 25.7296 8.76235 25.7593C8.74388 25.765 8.72552 25.7673 8.70705 25.7673Z" fill="black" fill-opacity="0.87"/>
<path d="M7.30198 23.4893C7.16097 23.7139 7.03846 23.9874 7.00031 24.3009C6.95408 24.6692 7.0373 24.9896 7.15172 25.2449L7.30198 23.4893Z" />
<path d="M7.15079 25.4718C7.06216 25.4718 6.97815 25.4205 6.94016 25.3361C6.78479 24.9872 6.72724 24.6293 6.77213 24.2725C6.8101 23.967 6.92174 23.6637 7.1059 23.3684C7.17265 23.2613 7.31421 23.2282 7.42241 23.2943C7.5306 23.3604 7.56397 23.5007 7.49721 23.6078C7.34874 23.845 7.25897 24.0878 7.22905 24.3272C7.19568 24.6008 7.2394 24.8779 7.3614 25.1515C7.4132 25.2666 7.36026 25.4011 7.24401 25.4524C7.21293 25.4661 7.18185 25.4718 7.15079 25.4718Z" fill="black" fill-opacity="0.87"/>
<path d="M17.7042 18.6444C17.5384 19.0707 17.1552 19.5324 16.6684 19.6021C16.2184 19.6647 15.804 19.4264 15.5059 19.0559C15.4772 19.1345 15.4415 19.2155 15.3954 19.2964C15.3206 19.4288 14.919 20.083 14.2491 20.083H14.2306C13.593 20.0717 13.0395 19.496 12.9428 18.7424C12.9278 18.617 13.0165 18.503 13.143 18.4881C13.2674 18.4722 13.3848 18.5611 13.3998 18.6854C13.4734 19.2668 13.8843 19.6213 14.2387 19.6271H14.2479C14.6704 19.6271 14.9615 19.1312 14.9938 19.0742C15.1526 18.7914 15.1491 18.5018 15.1203 18.3115C15.11 18.2762 15.1008 18.2408 15.0915 18.2055C14.6485 18.2568 14.2664 18.1029 14.1961 17.8223C14.1167 17.5032 14.4724 17.1407 14.9915 17.013C15.5117 16.8853 15.9974 17.0403 16.0768 17.3596C16.1435 17.6229 15.9145 17.9147 15.5416 18.0812C15.5531 18.1233 15.5635 18.1736 15.5727 18.2282C15.7591 18.8416 16.2357 19.2007 16.6039 19.1505C16.8894 19.1094 17.1575 18.7822 17.2737 18.4813C17.3728 18.2259 17.359 17.9854 17.3302 17.8292C17.3083 17.705 17.3911 17.5864 17.5154 17.5636C17.642 17.5419 17.7606 17.624 17.7836 17.7471C17.8228 17.9615 17.8412 18.2898 17.7042 18.6444Z" fill="black" fill-opacity="0.87"/>
</svg>
